PathFileType	4	(X/Y/Z)	C:/Users/opensim2020/Desktop/walking_exp_matlab/subject02_walking12_straight_01.trc	
DataRate	CameraRate	NumFrames	NumMarkers	Units	OrigDataRate	OrigDataStartFrame	OrigNumFrames	
100.00	100.00	8	42	mm	100.00	563	178	
Frame#	Time	LFHD			RFHD			LBHD			RBHD			C7			T10			CLAV			STRN			RBAK			LSHO			LUPA			LELB			LFRM			LWRA			LWRB			LFIN			RSHO			RUPA			RELB			RFRM			RWRA			RWRB			RFIN			LASI			RASI			LPSI			RPSI			LTHI			LKNE			LTIB			LANK			LHEE			LTOE			RTHI			RKNE			RTIB			RANK			RHEE			RTOE			*39			*40			*41			
		X1	Y1	Z1	X2	Y2	Z2	X3	Y3	Z3	X4	Y4	Z4	X5	Y5	Z5	X6	Y6	Z6	X7	Y7	Z7	X8	Y8	Z8	X9	Y9	Z9	X10	Y10	Z10	X11	Y11	Z11	X12	Y12	Z12	X13	Y13	Z13	X14	Y14	Z14	X15	Y15	Z15	X16	Y16	Z16	X17	Y17	Z17	X18	Y18	Z18	X19	Y19	Z19	X20	Y20	Z20	X21	Y21	Z21	X22	Y22	Z22	X23	Y23	Z23	X24	Y24	Z24	X25	Y25	Z25	X26	Y26	Z26	X27	Y27	Z27	X28	Y28	Z28	X29	Y29	Z29	X30	Y30	Z30	X31	Y31	Z31	X32	Y32	Z32	X33	Y33	Z33	X34	Y34	Z34	X35	Y35	Z35	X36	Y36	Z36	X37	Y37	Z37	X38	Y38	Z38	X39	Y39	Z39	X40	Y40	Z40	X41	Y41	Z41	X42	Y42	Z42	

67	0.660	-1069.63782	-525.82062	1721.21863	-927.26825	-535.31897	1700.86133	-1090.30066	-639.04297	1623.34839	-949.76239	-659.60944	1598.63135	-1019.94940	-684.15417	1491.14563	-1017.92297	-739.70599	1218.10852	-1030.85986	-543.38080	1421.11536	-1014.74042	-494.31842	1248.92383	-954.67889	-743.23938	1321.20471	-1201.30383	-613.21808	1459.44250	-1274.82190	-681.04810	1269.57959	-1280.87439	-729.71930	1138.37842	-1296.93396	-771.91632	1014.99554	-1271.67773	-768.38934	875.42743	-1303.54150	-810.24976	897.73956	-1303.36328	-823.37274	830.72833	-834.04041	-602.13336	1459.59607	-741.61768	-603.71222	1272.45300	-714.30817	-554.79144	1131.99475	-710.08179	-478.01743	1035.75977	-747.67566	-384.16830	945.53217	-709.65625	-419.17514	919.41711	-715.93616	-356.23267	884.15234	-1131.28003	-488.01166	965.53448	-874.69781	-527.91022	935.89417	-1081.87854	-709.43134	1003.01367	-971.95441	-730.52966	996.28723	-1211.68408	-469.40506	673.22021	-1184.05603	-429.99323	478.21097	-1196.68298	-432.94345	284.84299	-1172.59277	-384.01547	67.92031	-1124.66846	-420.78992	38.83845	-1165.66223	-227.56363	42.91433	-820.79541	-705.08990	658.03119	-843.37762	-770.27808	459.85358	-845.06012	-909.03845	330.37128	-878.35425	-1028.00720	177.16052	-939.44257	-1075.45557	154.07813	-870.19135	-946.42700	31.12314	-988.96887	-646.05304	1764.21448	-3360.33862	2845.14355	1034.22803			 
68	0.670	-1072.22693	-513.31793	1723.10425	-929.88342	-523.19580	1702.48120	-1093.29517	-626.72449	1625.50513	-952.83215	-647.97522	1600.62329	-1023.17328	-671.55023	1492.41418	-1020.75787	-725.28290	1218.44897	-1033.79639	-530.90686	1423.35596	-1018.46405	-480.24243	1251.75098	-958.26617	-729.92902	1321.21130	-1204.64160	-600.16901	1461.32751	-1278.44482	-665.00745	1269.98267	-1283.64417	-711.85132	1138.15613	-1299.95837	-752.96191	1014.77808	-1274.05994	-748.70361	875.05151	-1306.70251	-790.17139	897.07428	-1306.07068	-803.48859	829.95795	-836.74298	-590.32288	1460.93689	-744.83270	-592.13617	1273.60815	-717.36493	-545.26019	1133.06262	-712.72852	-468.13580	1036.63489	-749.35675	-373.95044	945.80737	-712.44775	-409.56421	919.98865	-718.34863	-346.81992	884.55524	-1135.73352	-472.76498	967.66791	-880.48785	-510.71277	937.10468	-1085.13074	-693.86475	1005.59436	-973.64148	-713.85394	998.01422	-1214.09290	-455.87436	674.47144	-1184.37512	-414.03214	479.85696	-1200.13574	-421.37546	286.80719	-1171.49963	-381.76675	68.77252	-1123.75867	-419.24496	39.57751	-1166.91187	-225.48320	40.32686	-823.54156	-686.91827	658.56189	-841.75745	-748.08350	459.65250	-843.60010	-889.89044	334.08627	-877.00067	-1012.80524	184.38791	-938.91223	-1059.81348	165.12831	-871.40790	-943.88934	31.10234	-991.60303	-633.57343	1766.27466						 
69	0.680	-1074.50977	-500.97437	1724.61536	-932.57477	-510.99939	1704.20435	-1096.21399	-614.42548	1627.68115	-955.81848	-635.76257	1603.00684	-1025.96460	-659.49146	1493.81653	-1023.51111	-711.05017	1218.96851	-1036.55603	-518.44409	1425.71436	-1022.01251	-466.23114	1254.49744	-961.53778	-716.73297	1321.69019	-1207.62927	-587.25824	1463.44702	-1281.33643	-648.66803	1270.57043	-1286.50183	-693.64252	1138.15649	-1303.20691	-733.13562	1014.45129	-1276.09436	-728.44171	874.80817	-1309.85767	-769.18127	896.25684	-1308.77124	-782.46210	829.16119	-839.54730	-578.85229	1462.63794	-748.15375	-582.13354	1275.01563	-720.41614	-534.42871	1134.20264	-715.81067	-458.12631	1037.58044	-751.90643	-364.51541	946.34265	-715.18549	-400.40280	920.60583	-720.63538	-337.59525	884.88898	-1140.06104	-458.01392	969.98169	-886.54236	-493.95911	938.38110	-1088.21521	-678.83691	1008.05872	-974.79694	-697.52124	999.64203	-1216.22156	-441.52161	675.78625	-1184.59851	-401.24200	480.27350	-1202.07288	-411.74985	287.48615	-1170.84961	-379.58368	69.14176	-1123.82324	-418.58325	39.88426	-1165.16077	-223.72156	38.27506	-826.14301	-667.44867	658.37836	-841.36823	-724.05750	458.42691	-842.19983	-869.20093	336.94238	-875.33527	-995.42047	190.98625	-938.41602	-1042.65759	176.19882	-873.02789	-940.66394	31.50973	-994.25360	-621.05902	1768.25952						 
70	0.690	-1077.16663	-488.41351	1726.53040	-935.00598	-498.97754	1705.92212	-1098.39172	-602.08698	1629.46313	-958.66302	-623.85730	1605.03723	-1028.69141	-647.41187	1494.89099	-1026.23523	-697.24475	1219.72900	-1039.25757	-505.87637	1427.99182	-1025.46204	-452.31223	1257.15698	-964.62396	-703.46906	1322.19153	-1210.28467	-574.61053	1465.52319	-1284.60376	-632.40076	1271.43799	-1289.47888	-675.16809	1138.34705	-1306.29456	-712.94678	1014.35303	-1278.81128	-706.85632	874.56622	-1313.38135	-747.21893	895.58008	-1311.70557	-760.30737	828.24561	-842.20673	-566.73553	1464.22339	-751.39587	-570.77124	1276.47302	-723.46039	-524.38519	1135.59998	-718.70801	-448.55698	1038.46497	-754.31152	-355.44943	946.76215	-717.86420	-391.65213	921.09338	-723.17657	-329.24179	885.21954	-1144.32764	-443.75949	972.32397	-892.49243	-477.81952	939.68036	-1090.91956	-664.35614	1010.30377	-975.85480	-681.93799	1001.36560	-1217.99756	-426.87775	676.95587	-1185.54675	-389.80823	480.33374	-1202.26831	-404.03931	287.46024	-1170.50989	-377.62466	69.02937	-1123.37158	-417.55515	40.05618	-1163.89880	-222.22261	37.28082	-828.83954	-647.15454	657.13251	-841.29333	-699.38165	456.36594	-841.40155	-846.65833	339.11432	-873.84033	-977.37830	198.03749	-937.39270	-1025.30566	188.12971	-874.25189	-934.75330	34.69739	-997.03241	-608.79266	1770.22156	-3356.89136	2845.96436	1034.30286			 
71	0.700	-1079.53674	-476.04562	1728.35657	-937.39685	-486.81607	1707.67566	-1101.60010	-589.96246	1631.78125	-961.56079	-612.16058	1606.90955	-1031.24756	-635.40820	1495.89709	-1028.87585	-683.82532	1220.98730	-1041.83850	-493.11734	1430.25427	-1028.58630	-438.73685	1259.67908	-967.30811	-691.04004	1323.24963	-1212.67346	-562.17969	1467.76257	-1287.81323	-616.07538	1272.42761	-1292.56543	-656.49371	1138.67346	-1309.37317	-692.12097	1014.19641	-1281.63171	-684.33600	874.38318	-1316.91931	-724.34869	894.83051	-1314.82593	-737.03333	827.28003	-845.00623	-555.71375	1465.99731	-754.61469	-560.29303	1277.96179	-726.51886	-514.43677	1137.10547	-721.51910	-439.59512	1039.20215	-756.72510	-346.79715	946.97711	-720.48859	-383.30368	921.48224	-725.46161	-321.57300	884.62103	-1148.36707	-429.63589	974.92175	-898.24048	-462.10947	940.93842	-1093.47009	-650.26324	1012.12494	-977.09680	-666.86212	1002.92371	-1219.47302	-412.38382	677.84937	-1186.16125	-379.56531	480.18607	-1201.75427	-397.87775	287.48331	-1170.23083	-376.65140	69.16113	-1123.49316	-417.41922	40.52943	-1164.17908	-221.36504	36.52423	-831.17804	-625.93860	654.74060	-841.09668	-673.49170	454.24182	-840.99323	-822.95001	341.03729	-873.35815	-958.61157	205.60017	-936.86395	-1006.55804	200.31331	-875.63318	-926.72778	40.12501	-999.70642	-596.24548	1772.39429						 
72	0.710	-1081.74597	-463.70578	1730.30042	-939.81091	-474.97568	1709.71997	-1104.02661	-577.68616	1633.86816	-963.74890	-599.96790	1608.96558	-1033.67981	-623.44659	1497.08801	-1031.20007	-670.47943	1222.47498	-1044.17029	-480.49466	1432.51990	-1031.49988	-425.43771	1262.11047	-970.11823	-677.27686	1324.44751	-1215.05078	-549.62250	1470.25208	-1291.01086	-599.73285	1273.56738	-1295.72144	-637.59827	1139.07544	-1312.63940	-670.71783	1014.02893	-1284.50146	-660.92444	874.31256	-1320.54993	-700.62915	894.06616	-1318.11279	-712.60382	826.25909	-847.28967	-543.55151	1467.84473	-757.60754	-549.53290	1279.50220	-729.63879	-504.62949	1138.67358	-724.30884	-430.64136	1039.83508	-759.25684	-338.71942	946.92688	-722.92639	-375.34222	921.75781	-727.51440	-313.97366	884.43683	-1151.89673	-416.30737	977.55377	-903.56677	-446.91373	942.08447	-1095.59839	-636.51233	1013.57336	-978.57483	-652.13409	1004.33679	-1220.54785	-398.52225	678.65125	-1186.78369	-370.60907	480.43216	-1201.18774	-393.45126	287.83649	-1169.90222	-376.21506	69.11060	-1123.48145	-417.65762	40.90426	-1163.47717	-220.74043	36.12793	-833.47791	-604.38544	651.86633	-841.30969	-646.82019	451.95062	-840.71387	-798.57544	343.30161	-874.17114	-938.91620	213.91801	-937.82166	-986.35632	212.36412	-877.31744	-915.58020	46.99408	-1002.14185	-583.97406	1774.50183						 
73	0.720	-1083.97168	-451.35526	1732.39063	-941.84821	-462.63782	1711.79248	-1106.05115	-565.45050	1635.69910	-966.09473	-587.87018	1611.32202	-1036.12598	-611.34753	1498.67859	-1033.49475	-657.21405	1224.22021	-1046.35632	-467.94220	1434.83472	-1034.05090	-412.38263	1264.50635	-972.51019	-664.64929	1326.11731	-1217.18323	-537.19904	1472.49707	-1294.14307	-583.27362	1274.75562	-1299.05261	-618.42682	1139.54016	-1316.41492	-648.60297	1013.88416	-1287.40356	-636.74432	874.35284	-1324.16162	-676.15015	893.30139	-1321.55383	-687.12988	825.26660	-849.65393	-532.04065	1469.82825	-760.58527	-539.12964	1281.25623	-732.60956	-495.50647	1139.96460	-727.06573	-422.11118	1040.64172	-761.21558	-330.36533	946.84479	-725.27240	-367.60272	921.87250	-729.69318	-307.01251	883.96716	-1155.74609	-402.95435	980.02667	-908.45331	-432.27939	943.22931	-1097.58667	-623.06628	1014.86005	-980.28522	-637.88220	1005.68085	-1221.06055	-385.45667	679.93005	-1187.69849	-363.61322	480.50241	-1200.49585	-390.83456	288.18350	-1169.70703	-375.86630	69.11843	-1123.41614	-417.69894	41.00458	-1162.69897	-220.24321	35.85568	-835.54553	-581.42896	648.65222	-841.73126	-620.60437	450.45224	-840.76953	-773.35760	346.10623	-875.84906	-917.92847	222.32607	-940.48871	-964.21472	223.14647	-876.82306	-902.23193	54.59103	-1004.66431	-571.99414	1776.65540						 
74	0.730	-1085.95361	-439.01096	1734.55786	-943.87390	-450.51974	1714.08130	-1108.33679	-553.09888	1638.14880	-968.16492	-575.81018	1613.56921	-1038.44189	-598.97687	1500.76880	-1035.76685	-644.17499	1226.12695	-1048.43262	-455.51184	1437.27576	-1036.24072	-399.55252	1266.92126	-974.77161	-652.27411	1328.38232	-1219.50732	-524.38580	1475.05994	-1297.19348	-566.73999	1276.04065	-1302.39282	-599.05261	1140.12842	-1319.74219	-626.23126	1013.68262	-1290.27295	-611.78833	874.64197	-1327.62988	-651.02264	892.63751	-1325.17456	-660.60559	824.36108	-851.69257	-520.70020	1471.64734	-763.25659	-528.09082	1282.54211	-735.61102	-485.76657	1141.15381	-729.56146	-412.80563	1041.53894	-763.16235	-322.56729	946.29431	-727.45129	-360.31165	921.84998	-731.97559	-299.18204	883.08069	-1159.77441	-389.76288	982.35480	-912.59326	-418.10223	944.43201	-1099.45447	-610.07257	1016.06152	-982.26990	-623.78937	1006.91425	-1221.98328	-373.53989	681.56866	-1189.03882	-357.64819	480.58762	-1199.89514	-389.31381	288.39658	-1169.61475	-375.82431	69.15184	-1123.38623	-417.74841	41.00921	-1162.58276	-219.99443	35.69446	-837.24426	-558.40051	646.77979	-842.87195	-592.77124	449.03934	-841.66412	-747.36810	348.95966	-878.25232	-895.89508	230.58427	-944.15839	-941.23840	232.39706	-875.08990	-886.05438	62.77882	-1006.64514	-559.50995	1778.90247						 
